PathFileType	4	(X/Y/Z)	s04c0301.trc
DataRate	CameraRate	NumFrames	NumMarkers	Units	OrigDataRate	OrigDataStartFrame	OrigNumFrames
200	200	5	50	mm	200	500	2000
Frame#	Time	racr			lacr			c7			jug			rlel			rdr			llel			ldr			s2			lic			ric			lasi			rasi			rpsi			lpsi			rgt			lgt			rth1			rth2			rth3			rth4			rlfc			rmfc			rsh1			rsh2			rsh3			rsh4			rlmal			rmmal			rcal			rtoe			rmt5			lth1			lth2			lth4			lth3			llfc			lmfc			lsh1			lsh2			lsh3			lsh4			llmal			lmmal			lcal			ltoe			lmt5			SBIKE			LBIKE			RBIKE			
		X1	Y1	Z1	X2	Y2	Z2	X3	Y3	Z3	X4	Y4	Z4	X5	Y5	Z5	X6	Y6	Z6	X7	Y7	Z7	X8	Y8	Z8	X9	Y9	Z9	X10	Y10	Z10	X11	Y11	Z11	X12	Y12	Z12	X13	Y13	Z13	X14	Y14	Z14	X15	Y15	Z15	X16	Y16	Z16	X17	Y17	Z17	X18	Y18	Z18	X19	Y19	Z19	X20	Y20	Z20	X21	Y21	Z21	X22	Y22	Z22	X23	Y23	Z23	X24	Y24	Z24	X25	Y25	Z25	X26	Y26	Z26	X27	Y27	Z27	X28	Y28	Z28	X29	Y29	Z29	X30	Y30	Z30	X31	Y31	Z31	X32	Y32	Z32	X33	Y33	Z33	X34	Y34	Z34	X35	Y35	Z35	X36	Y36	Z36	X37	Y37	Z37	X38	Y38	Z38	X39	Y39	Z39	X40	Y40	Z40	X41	Y41	Z41	X42	Y42	Z42	X43	Y43	Z43	X44	Y44	Z44	X45	Y45	Z45	X46	Y46	Z46	X47	Y47	Z47	X48	Y48	Z48	X49	Y49	Z49	X50	Y50	Z50	
500	2.5000	752.237409	1371.921442	-166.021766	792.810067	1295.083864	-474.423435	780.411953	1416.471474	-329.401402	740.166599	1266.512997	-310.958690	567.084704	1142.684023	-22.553848	703.533523	908.103840	-112.366841	553.808661	1128.692355	-575.532901	693.085215	919.516991	-480.985811	190.956667	1268.440754	-308.592563	337.883913	1223.886255	-473.499703	350.643174	1267.104863	-151.080799	366.371848	1177.694244	-424.182646	376.164675	1200.096073	-191.395993	229.593502	1310.187027	-272.673474	226.034705	1304.239716	-348.176361	293.603382	1215.756116	-123.957060	277.125303	1139.830898	-477.968352	369.551025	1072.638537	-102.824536	425.828575	1004.430068	-104.054954	444.842298	921.815588	-94.755071	453.872581	1017.608650	-123.578512	471.740769	780.723227	-101.297391	456.082629	762.256169	-215.191520	360.101478	721.583702	-83.148173	297.030017	657.495387	-102.196319	214.089410	639.657082	-116.240825	318.229867	631.478584	-121.218636	87.253269	549.221750	-131.438708	118.893550	536.049818	-212.680319	28.046771	577.795708	-179.546991	196.517444	323.625556	-158.206093	135.101717	366.363820	-109.196626	309.987978	1054.252703	-486.637262	368.911195	990.337667	-486.728355	400.800755	1007.788276	-482.379214	388.457884	903.927532	-482.111882	448.172336	751.582104	-462.312634	471.282012	728.525617	-349.973926	418.148592	627.854936	-478.370725	405.719489	544.857461	-456.280638	354.056451	472.901137	-453.641930	432.916608	537.954960	-427.904776	290.820831	340.070076	-450.492718	288.213970	341.637652	-361.558691	208.420737	329.335268	-411.460785	504.003991	262.443812	-412.287508	428.188816	241.131833	-474.984130	-184.817745	935.015957	-287.717722	-17.541838	78.895287	-485.573867	-17.471618	79.310848	-84.958333	
501	2.5050	751.775138	1372.243983	-165.033464	793.112958	1295.491724	-473.280561	780.408892	1416.644753	-328.502126	740.483125	1266.616271	-309.771718	567.104541	1142.387112	-22.191390	703.647761	908.010293	-112.547974	555.245189	1128.551158	-576.333434	693.315857	918.826826	-480.888386	191.354160	1266.300005	-309.834267	339.071672	1220.752407	-474.106629	350.814440	1267.256612	-152.120396	367.153045	1174.688972	-424.321311	376.737583	1200.068041	-191.712213	229.841491	1308.507449	-274.390715	226.475316	1301.725331	-349.900401	294.418338	1215.748685	-124.485344	277.288012	1136.614593	-477.968023	371.727260	1073.679115	-102.263838	429.065741	1006.429998	-103.197465	449.430757	924.062388	-93.547458	456.940031	1020.023662	-122.658508	478.322996	783.687452	-99.933197	464.606159	765.067557	-213.713605	366.560651	725.537434	-82.066588	302.991831	662.211280	-101.360084	219.864559	645.662640	-115.281946	323.881065	636.141683	-120.610554	91.934264	556.670337	-131.253179	123.587106	543.321021	-212.404607	32.869270	585.670431	-179.485510	199.980231	330.573284	-158.363220	138.823545	373.627911	-109.233756	308.710750	1050.750442	-486.925063	366.600098	985.908402	-487.367795	398.748750	1002.845511	-483.183842	384.746674	899.172809	-482.725325	442.619881	745.717924	-463.123922	466.196215	722.698298	-350.808309	413.011455	621.677230	-479.048777	401.221391	538.636604	-456.785188	350.070748	466.278804	-454.038101	428.618850	531.706873	-428.405368	287.966461	332.962987	-450.570584	285.336772	334.814456	-361.689878	205.605714	322.864831	-411.454525	500.791248	254.158695	-412.136227	424.825808	233.316197	-474.835160	-184.826027	935.029955	-287.766397	-17.535867	78.891392	-485.566724	-17.463545	79.306568	-84.941231	
502	2.5100	751.380824	1372.583167	-163.987297	793.334579	1296.175406	-472.160172	780.382272	1416.990767	-327.447280	740.869933	1266.839265	-308.486588	567.116026	1142.158791	-21.802492	703.732009	908.000987	-112.687060	556.751391	1128.614210	-577.405919	693.746951	918.611507	-482.708723	191.798315	1264.261983	-311.043666	340.307290	1217.709637	-474.785586	351.032044	1267.132079	-153.829195	368.284904	1171.990559	-424.480151	377.275205	1200.157577	-192.009134	229.976855	1306.916130	-275.943486	226.920764	1299.278552	-351.461614	295.186573	1215.807844	-125.073019	277.468352	1133.393024	-477.959808	373.899926	1075.049488	-101.788269	432.376894	1008.622335	-102.447718	454.052957	926.695797	-92.539660	460.065981	1022.649096	-121.973263	484.955618	787.005038	-98.735690	471.113485	768.141419	-212.736019	373.345985	729.548554	-81.038694	309.075737	667.101608	-100.610869	225.469243	651.361801	-114.259223	329.092031	640.890998	-120.273732	96.991079	564.042254	-131.095771	128.621458	550.567514	-212.214999	38.027823	593.372845	-179.383472	203.874253	337.545766	-158.483521	142.935334	380.843934	-109.325882	307.370980	1047.296614	-487.251516	364.124034	981.524935	-488.005552	396.613050	997.965667	-484.057318	380.805211	894.525846	-483.304267	437.115662	740.220730	-464.155641	460.720252	717.051756	-351.894465	407.674800	615.641643	-479.674395	396.512448	532.624794	-457.385403	345.760713	459.911473	-454.457380	424.014759	525.810685	-429.031378	284.855252	326.060511	-450.619285	282.175661	328.214858	-361.805463	202.457816	316.644050	-411.499170	497.177419	245.896426	-411.995879	421.106472	225.513664	-474.651257	-184.819603	935.025837	-287.768516	-17.531231	78.889518	-485.571080	-17.457280	79.292516	-84.952564	
503	2.5150	751.056544	1373.065347	-162.818552	793.521284	1297.026203	-471.039706	780.358053	1417.442724	-326.548665	741.211613	1267.055267	-307.267971	567.173277	1141.981092	-21.334294	703.798963	908.045375	-112.850202	558.538347	1128.816784	-578.624782	694.169774	918.464967	-484.634649	192.272093	1262.254330	-312.227719	341.544370	1214.980942	-475.401490	350.813838	1267.583054	-154.912021	369.511094	1169.152270	-424.382104	377.785499	1200.390491	-192.164057	230.169344	1305.474274	-277.574762	227.373512	1296.881232	-353.094389	296.158914	1216.100638	-125.442151	277.735395	1130.154531	-477.382181	376.216818	1076.465874	-101.468423	435.784813	1011.037295	-101.901297	458.842509	929.590487	-91.642253	463.253124	1025.521882	-121.481575	491.717930	790.583721	-97.575655	478.460892	771.505136	-211.694618	380.129698	733.858240	-80.121647	315.354122	671.944799	-99.881233	231.542056	657.130941	-113.521609	335.145054	645.714829	-119.782375	102.282153	571.218419	-130.971196	133.903416	557.621777	-212.000283	43.429457	600.959195	-179.211153	208.114233	344.355373	-158.606354	147.323069	387.881425	-109.427445	305.922492	1044.074550	-487.545041	361.571745	977.274634	-488.639761	394.322945	993.140151	-485.053625	376.865165	890.019887	-483.964463	431.660425	735.012290	-465.233244	455.081732	711.531922	-352.985251	402.073564	609.746476	-480.301639	391.490088	526.644035	-457.950298	341.170132	453.722946	-454.878846	419.148349	520.085189	-429.718446	281.315623	319.441572	-450.693171	278.491857	321.844247	-362.075181	198.982816	310.651021	-411.495883	493.211540	237.814001	-411.838221	417.005264	217.871538	-474.472479	-184.804609	934.997218	-287.749827	-17.525388	78.885248	-485.577759	-17.450696	79.321261	-84.933875	
504	2.5200	750.794639	1373.607109	-161.585061	793.715186	1298.044570	-469.921724	780.358452	1418.050663	-325.469264	741.491107	1267.611727	-305.729459	567.287788	1141.897880	-20.774404	703.822685	908.100641	-113.094512	560.459162	1129.171616	-580.087481	694.375298	917.981017	-484.853859	192.771947	1260.300047	-313.555876	342.944574	1212.249890	-475.938139	350.651713	1268.040305	-156.100642	370.730167	1166.704704	-424.505006	378.308187	1200.653168	-192.329758	230.334058	1304.063203	-279.304742	227.938579	1294.637843	-354.617542	297.054120	1216.545979	-125.969526	277.992073	1127.295975	-477.403115	378.555682	1078.174805	-101.298987	439.174150	1013.670618	-101.356433	463.685909	932.772664	-90.807886	466.487977	1028.568127	-121.117837	498.533599	794.454002	-96.632238	485.769089	775.167583	-210.820342	386.998404	738.396121	-79.292546	322.045883	677.018764	-99.051169	237.696361	662.999269	-112.934170	341.207779	650.784371	-119.305948	107.826071	578.142526	-130.932063	139.445006	564.623324	-211.902843	49.103599	608.197752	-179.131169	212.775120	350.973011	-158.821444	152.136501	394.701605	-109.581091	304.428581	1040.860469	-487.853121	358.894449	973.146342	-489.369749	391.949976	988.459783	-486.058469	372.675513	885.638809	-484.546825	425.348909	729.175338	-465.751886	450.182612	706.103531	-354.321601	396.212389	604.056162	-480.845340	386.160126	520.952611	-458.544992	336.270194	447.740335	-455.290135	413.987401	514.468529	-430.350049	277.519264	312.886138	-450.780984	274.728231	315.688544	-362.171227	195.180431	304.932085	-411.537241	488.928143	229.918185	-411.668423	412.542646	210.513806	-474.319925	-184.824559	935.003566	-287.790850	-17.512682	78.872141	-485.582294	-17.426651	79.292103	-84.936637	
